<?xml version="1.0" encoding="UTF-8"?>
<svg xmlns="http://www.w3.org/2000/svg" viewBox="0 0 408.72 317.45">
  <defs>
    <style>
      .cls-1 {
        font-family: Bauhaus93, 'Bauhaus 93';
        font-size: 62px;
      }

      .cls-2, .cls-3 {
        fill: #2595ff;
      }

      .cls-4 {
        fill: #238aed;
      }

      .cls-5 {
        fill: #ff8619;
      }

      .cls-6 {
        fill: #db7112;
      }

      .cls-3 {
        letter-spacing: 0em;
      }
    </style>
  </defs>
  <g id="OBJECTS">
    <g>
      <path class="cls-2" d="M240.03,4.04c-.46,2.31,.58,4.94,9.51,9.96,.3,.17,.6,.34,.9,.5l.55,6.68-.66-.42c-.27-.17-.63-.09-.8,.18l-.37,.58c-.17,.27-.09,.63,.18,.8l1.84,1.15,.55,6.75-.41-.26c-.27-.17-.63-.09-.8,.18l-.37,.58c-.17,.27-.09,.63,.18,.8l1.58,.99,.44,5.41,3.84,2.41,2.8-21.25c4.83,2.53,9.58,4.94,12.91,6.61l.36,7.03,2.55,1.6,1.79-6.77,2.15,.49-1.37-1.73,5.32-4.55-2.55-1.6-6.49,2.73c-2.95-2.27-7.18-5.51-11.56-8.76l17.92-11.76-3.84-2.41-5.07,1.95-1.58-.99c-.27-.17-.63-.09-.8,.18l-.37,.58c-.17,.27-.09,.63,.18,.8l.41,.26-6.32,2.43-1.84-1.15c-.27-.17-.63-.09-.8,.18l-.37,.58c-.17,.27-.09,.63,.18,.8l.66,.42-6.26,2.41c-.28-.2-.57-.4-.85-.59-8.4-5.87-11.22-5.65-13.1-4.24-.13,.1-.23,.25-.26,.42Z"/>
      <path class="cls-6" d="M286.66,48.25c-.22,6.92-2.63,14.18-7.85,20.4-11.15,13.32-36.22,24.73-76.48,39.08-42.82,15.25-88.18,30.97-90.76,62.95-4.55-11.53-7.08-24.08-7.08-37.22,0-55.97,45.37-101.33,101.31-101.33,2.02,0,4,.07,5.98,.18,25.15,1.47,47.82,12.12,64.75,28.63,3.97-2.67,8.38-6.82,10.13-12.7Z"/>
      <path class="cls-5" d="M185.35,245.88c-68.45-35.32-38.05-79.15,30.5-109.78-72.56,46.38-54.33,85.75-30.5,109.78Z"/>
      <path class="cls-2" d="M268.61,89.28c-.6,.52-1.23,1.02-1.87,1.53-39.98,33.18-94.03,45.78-121.93,77.33-21.57,24.4-14.35,41.43-10.68,47.95-21.27-18.52-20.55-48.57,12.63-69.08,33.18-20.5,76.03-30.77,121.85-57.73Z"/>
      <path class="cls-5" d="M286.66,48.25c-.22,6.92-2.63,14.18-7.85,20.4-11.15,13.32-36.22,24.73-76.48,39.08-42.82,15.25-88.18,30.97-90.76,62.95-4.55-11.53-7.08-24.08-7.08-37.22,0-55.97,45.37-101.33,101.31-101.33,2.02,0,4,.07,5.98,.18-45.52,.08-89.25,43.4-84.76,86.81,12.33-37.03,103.3-31.97,149.51-58.18,3.97-2.67,8.38-6.82,10.13-12.7Z"/>
      <path class="cls-2" d="M298.34,92.23c9.5-26.07,2.22-49.67-16.55-61.51,38.58,44.68-28.87,85.32-79.15,127.09-26.16,21.73-30.61,57.77-3.48,71.61,8.27,4.22,17.83,5.17,26.93,3.31,46.22-9.4,81.01-50.27,81.01-99.27,0-14.69-3.14-28.64-8.77-41.23Z"/>
      <path class="cls-4" d="M298.34,92.23c-14.42,34.72-82.57,80.21-90.59,97.06-12.34,25.94,21.49,36.59,47.85,17.02-49.98-2.98,42.05-44.81,50.99-83.11"/>
      <path class="cls-6" d="M185.35,245.88c-59.01-46.52-24.12-77.16,30.5-109.78-72.56,46.38-54.33,85.75-30.5,109.78Z"/>
      <path class="cls-4" d="M266.74,90.82c-39.98,33.18-94.03,45.78-121.93,77.33-21.57,24.4-14.35,41.43-10.68,47.95-45.77-67.41,85.76-87.96,132.61-125.28Z"/>
    </g>
  </g>
  <g id="Layer_3" data-name="Layer 3">
    <text class="cls-1" transform="translate(0 301.95)"><tspan class="cls-5" x="0" y="0">WESTAR</tspan><tspan x="211.55" y="0"> </tspan><tspan class="cls-3" x="227.05" y="0">SMART</tspan></text>
  </g>
</svg>